<?xml version="1.0" encoding="utf-8"?>
<!-- Generator: Adobe Illustrator 26.0.3, SVG Export Plug-In . SVG Version: 6.00 Build 0)  -->
<svg version="1.0" id="katman_1" xmlns="http://www.w3.org/2000/svg" xmlns:xlink="http://www.w3.org/1999/xlink" x="0px" y="0px"
	 viewBox="0 0 600 450" style="enable-background:new 0 0 600 450;" xml:space="preserve">
<style type="text/css">
	.st0{fill:#FFFFFF;stroke:#010202;stroke-width:1.2825;}
	.st1{fill:#010202;}
	.st2{fill-rule:evenodd;clip-rule:evenodd;fill:#FFFFFF;}
</style>
<path class="st0" d="M75.4,139.9h449.5c13.8,0,25,11.2,25,25v120.9c0,13.8-11.2,25-25,25H75.4c-13.8,0-25-11.2-25-25V164.9
	C50.4,151.1,61.6,139.9,75.4,139.9z"/>
<path class="st1" d="M260.8,251.4h9.1l-4.5-14.1L260.8,251.4z M261.3,229.1h8.5l12.7,35.8h-8.1l-2.3-7.4h-13.2l-2.5,7.4h-7.8
	L261.3,229.1z M300,238.4h7.4l-9.6,26.5h-7.3l-9.5-26.5h7.8l5.5,19.5L300,238.4z M324.9,252c-0.4,0.3-0.9,0.5-1.3,0.7
	c-0.4,0.2-1,0.3-1.8,0.5l-1.6,0.3c-1.5,0.3-2.5,0.6-3.1,0.9c-1.1,0.6-1.6,1.6-1.6,2.9c0,1.2,0.3,2,1,2.6c0.7,0.5,1.5,0.8,2.4,0.8
	c1.5,0,2.9-0.4,4.1-1.3c1.3-0.9,1.9-2.5,2-4.8V252z M320.7,248.8c1.3-0.2,2.2-0.4,2.7-0.6c1-0.4,1.5-1.1,1.5-2
	c0-1.1-0.4-1.8-1.1-2.2c-0.7-0.4-1.8-0.6-3.3-0.6c-1.6,0-2.8,0.4-3.5,1.2c-0.5,0.6-0.8,1.4-1,2.4h-6.7c0.1-2.3,0.8-4.2,1.9-5.7
	c1.8-2.3,5-3.5,9.4-3.5c2.9,0,5.5,0.6,7.7,1.7c2.3,1.1,3.4,3.3,3.4,6.5v12.1c0,0.8,0,1.9,0,3.1c0,0.9,0.2,1.5,0.4,1.8
	c0.2,0.3,0.6,0.6,1,0.8v1h-7.5c-0.2-0.5-0.4-1-0.4-1.5c-0.1-0.5-0.1-1-0.2-1.6c-1,1-2.1,1.9-3.3,2.6c-1.5,0.9-3.2,1.3-5.1,1.3
	c-2.4,0-4.4-0.7-6-2c-1.6-1.4-2.3-3.3-2.3-5.8c0-3.3,1.3-5.6,3.8-7.1c1.4-0.8,3.4-1.4,6.1-1.7L320.7,248.8L320.7,248.8z
	 M344.1,264.9h-6.9v-35.8h6.9V264.9z M364.5,252c-0.4,0.3-0.9,0.5-1.3,0.7c-0.4,0.2-1,0.3-1.8,0.5l-1.6,0.3
	c-1.5,0.3-2.5,0.6-3.1,0.9c-1.1,0.6-1.6,1.6-1.6,2.9c0,1.2,0.3,2,1,2.6c0.7,0.5,1.5,0.8,2.4,0.8c1.5,0,2.9-0.4,4.1-1.3
	c1.3-0.9,1.9-2.5,2-4.8V252z M360.3,248.8c1.3-0.2,2.2-0.4,2.7-0.6c1-0.4,1.5-1.1,1.5-2c0-1.1-0.4-1.8-1.1-2.2
	c-0.7-0.4-1.8-0.6-3.3-0.6c-1.6,0-2.8,0.4-3.5,1.2c-0.5,0.6-0.8,1.4-1,2.4H349c0.1-2.3,0.8-4.2,1.9-5.7c1.8-2.3,5-3.5,9.4-3.5
	c2.9,0,5.5,0.6,7.7,1.7c2.3,1.1,3.4,3.3,3.4,6.5v12.1c0,0.8,0,1.9,0,3.1c0,0.9,0.2,1.5,0.4,1.8c0.2,0.3,0.6,0.6,1,0.8v1h-7.5
	c-0.2-0.5-0.4-1-0.4-1.5c-0.1-0.5-0.1-1-0.2-1.6c-1,1-2.1,1.9-3.3,2.6c-1.5,0.9-3.2,1.3-5.1,1.3c-2.4,0-4.4-0.7-6-2
	c-1.6-1.4-2.3-3.3-2.3-5.8c0-3.3,1.3-5.6,3.8-7.1c1.4-0.8,3.4-1.4,6.1-1.7L360.3,248.8L360.3,248.8z M391.3,237.8
	c2.7,0,5,0.7,6.7,2.2c1.7,1.4,2.6,3.8,2.6,7.1v17.8h-7.1v-16.1c0-1.4-0.2-2.5-0.6-3.2c-0.7-1.4-2-2-3.9-2c-2.4,0-4,1-4.8,3
	c-0.5,1.1-0.7,2.4-0.7,4v14.3h-6.9v-26.4h6.7v3.9c0.9-1.4,1.7-2.3,2.5-2.9C387.3,238.3,389.1,237.8,391.3,237.8L391.3,237.8z
	 M421.9,247.9c-0.1-1-0.5-1.9-1-2.7c-0.8-1.1-2-1.6-3.6-1.6c-2.3,0-3.9,1.2-4.8,3.5c-0.5,1.2-0.7,2.9-0.7,4.9c0,1.9,0.2,3.5,0.7,4.7
	c0.8,2.2,2.4,3.3,4.7,3.3c1.6,0,2.8-0.4,3.5-1.3c0.7-0.9,1.1-2,1.2-3.4h7.1c-0.2,2.1-0.9,4.1-2.3,6c-2.2,3-5.4,4.5-9.6,4.5
	c-4.3,0-7.4-1.3-9.4-3.8c-2-2.5-3-5.8-3-9.8c0-4.5,1.1-8.1,3.3-10.6c2.2-2.5,5.3-3.8,9.2-3.8c3.3,0,6,0.7,8.1,2.2
	c2.1,1.5,3.4,4.1,3.8,7.9L421.9,247.9L421.9,247.9z M447.4,237.7c1.6,0,3.1,0.3,4.4,0.8c1.3,0.6,2.4,1.4,3.3,2.6
	c0.7,1,1.2,2,1.3,3.1c0.2,1,0.2,2.7,0.2,5.1v15.5h-7.1v-16.1c0-1.4-0.2-2.6-0.7-3.4c-0.6-1.2-1.8-1.8-3.6-1.8
	c-1.8,0-3.2,0.6-4.2,1.8c-0.9,1.2-1.4,3-1.4,5.2v14.3h-6.9v-35.7h6.9v12.7c1-1.5,2.2-2.6,3.5-3.2C444.5,238,445.9,237.7,447.4,237.7
	L447.4,237.7z M472.6,243.4c-1.6,0-2.9,0.5-3.7,1.5c-0.9,1-1.4,2.4-1.7,4.1H478c-0.1-1.8-0.7-3.2-1.7-4.2
	C475.3,243.9,474.1,243.4,472.6,243.4z M472.6,237.7c2.2,0,4.2,0.4,6,1.2c1.8,0.8,3.2,2.1,4.4,3.9c1,1.6,1.7,3.4,2,5.5
	c0.2,1.2,0.3,3,0.2,5.2h-18.1c0.1,2.7,0.9,4.5,2.5,5.6c1,0.7,2.1,1,3.4,1c1.4,0,2.6-0.4,3.5-1.2c0.5-0.4,0.9-1,1.3-1.8h7.1
	c-0.2,1.6-1,3.2-2.5,4.8c-2.3,2.6-5.4,3.9-9.5,3.9c-3.4,0-6.3-1.1-8.9-3.3c-2.6-2.2-3.9-5.7-3.9-10.6c0-4.6,1.2-8.1,3.5-10.5
	C465.9,238.9,468.9,237.7,472.6,237.7L472.6,237.7z M271.7,185.1H284c2.4,0,4.4,0.7,5.9,2.1c1.5,1.4,2.2,3.3,2.2,5.7
	c0,2.1-0.7,4-2,5.6c-1.3,1.6-3.4,2.4-6.1,2.4h-8.6v11.5h-3.7L271.7,185.1L271.7,185.1z M288.3,193c0-2-0.7-3.4-2.2-4.1
	c-0.8-0.4-1.9-0.6-3.4-0.6h-7.4v9.4h7.4c1.7,0,3-0.4,4-1.1C287.8,196,288.3,194.8,288.3,193L288.3,193z M303.4,210.2
	c2.2,0,3.7-0.8,4.5-2.5c0.8-1.7,1.2-3.5,1.2-5.6c0-1.9-0.3-3.4-0.9-4.5c-0.9-1.8-2.6-2.7-4.9-2.7c-2,0-3.5,0.8-4.5,2.3
	c-0.9,1.6-1.4,3.4-1.4,5.6c0,2.1,0.5,3.9,1.4,5.3C299.9,209.5,301.4,210.2,303.4,210.2L303.4,210.2z M303.5,192
	c2.6,0,4.7,0.9,6.5,2.6c1.8,1.7,2.7,4.2,2.7,7.5c0,3.2-0.8,5.8-2.3,7.9c-1.6,2.1-4,3.1-7.3,3.1c-2.7,0-4.9-0.9-6.5-2.8
	c-1.6-1.9-2.4-4.3-2.4-7.5c0-3.3,0.8-6,2.5-8C298.4,192.9,300.6,192,303.5,192L303.5,192z M317.4,192.5l3.8,15.7l3.9-15.7h3.8
	l3.9,15.6l4.1-15.6h3.3l-5.8,19.9h-3.5l-4-15.4l-3.9,15.4h-3.5l-5.7-19.9H317.4L317.4,192.5z M350.9,192.1c1.4,0,2.8,0.3,4.1,1
	c1.3,0.7,2.3,1.5,3,2.6c0.7,1,1.1,2.2,1.3,3.5c0.2,0.9,0.3,2.4,0.3,4.4h-14.6c0.1,2,0.5,3.6,1.4,4.9c0.9,1.2,2.3,1.8,4.1,1.8
	c1.7,0,3.1-0.6,4.2-1.7c0.6-0.7,1-1.4,1.3-2.3h3.3c-0.1,0.7-0.4,1.5-0.9,2.4c-0.5,0.9-1,1.6-1.6,2.2c-1,1-2.3,1.7-3.8,2
	c-0.8,0.2-1.7,0.3-2.7,0.3c-2.5,0-4.6-0.9-6.3-2.7c-1.7-1.8-2.6-4.3-2.6-7.6c0-3.2,0.9-5.8,2.6-7.8
	C345.8,193.1,348.1,192.1,350.9,192.1L350.9,192.1z M356.2,200.9c-0.1-1.4-0.5-2.6-0.9-3.5c-0.9-1.6-2.4-2.4-4.6-2.4
	c-1.5,0-2.8,0.6-3.9,1.7c-1,1.1-1.6,2.5-1.7,4.2H356.2L356.2,200.9z M363.1,192.5h3.2v3.4c0.3-0.7,0.9-1.5,1.9-2.4
	c1-1,2.2-1.4,3.5-1.4c0.1,0,0.2,0,0.3,0c0.1,0,0.4,0,0.8,0.1v3.5c-0.2,0-0.4-0.1-0.6-0.1c-0.2,0-0.3,0-0.5,0c-1.7,0-3,0.5-3.9,1.6
	c-0.9,1.1-1.4,2.3-1.4,3.7v11.4h-3.3L363.1,192.5L363.1,192.5z M383.2,192.1c1.4,0,2.8,0.3,4.1,1c1.3,0.7,2.3,1.5,3,2.6
	c0.7,1,1.1,2.2,1.3,3.5c0.2,0.9,0.3,2.4,0.3,4.4h-14.6c0.1,2,0.5,3.6,1.4,4.9c0.9,1.2,2.3,1.8,4.1,1.8c1.7,0,3.1-0.6,4.2-1.7
	c0.6-0.7,1-1.4,1.3-2.3h3.3c-0.1,0.7-0.4,1.5-0.9,2.4c-0.5,0.9-1,1.6-1.6,2.2c-1,1-2.3,1.7-3.8,2c-0.8,0.2-1.7,0.3-2.7,0.3
	c-2.5,0-4.6-0.9-6.3-2.7c-1.7-1.8-2.6-4.3-2.6-7.6c0-3.2,0.9-5.8,2.6-7.8C378.1,193.1,380.4,192.1,383.2,192.1L383.2,192.1z
	 M388.5,200.9c-0.1-1.4-0.5-2.6-0.9-3.5c-0.9-1.6-2.4-2.4-4.6-2.4c-1.5,0-2.8,0.6-3.9,1.7c-1,1.1-1.6,2.5-1.7,4.2H388.5L388.5,200.9
	z M397.4,202.7c0,2.1,0.5,3.9,1.4,5.3s2.4,2.2,4.3,2.2c1.5,0,2.8-0.7,3.8-2c1-1.3,1.5-3.2,1.5-5.7c0-2.5-0.5-4.4-1.5-5.6
	c-1-1.2-2.3-1.8-3.8-1.8c-1.7,0-3.1,0.6-4.1,1.9C397.9,198.3,397.4,200.2,397.4,202.7L397.4,202.7z M402.5,192.2
	c1.5,0,2.8,0.3,3.8,1c0.6,0.4,1.3,1,2,1.9v-10h3.2v27.3h-3v-2.8c-0.8,1.2-1.7,2.1-2.8,2.7c-1.1,0.5-2.3,0.8-3.7,0.8
	c-2.2,0-4.1-0.9-5.8-2.8c-1.6-1.9-2.4-4.3-2.4-7.4c0-2.9,0.7-5.4,2.2-7.5C397.6,193.2,399.7,192.2,402.5,192.2L402.5,192.2z
	 M425.3,185.1h3.2v9.9c0.7-1,1.6-1.7,2.6-2.2c1-0.5,2.1-0.8,3.3-0.8c2.5,0,4.5,0.9,6,2.6c1.5,1.7,2.3,4.2,2.3,7.5
	c0,3.1-0.8,5.7-2.3,7.8s-3.6,3.1-6.3,3.1c-1.5,0-2.8-0.4-3.8-1.1c-0.6-0.4-1.3-1.1-2-2.1v2.5h-3.1V185.1z M434,210.1
	c1.8,0,3.2-0.7,4-2.2c0.9-1.4,1.4-3.3,1.4-5.7c0-2.1-0.5-3.8-1.4-5.2c-0.9-1.4-2.2-2.1-4-2.1c-1.5,0-2.9,0.6-4,1.7
	c-1.1,1.1-1.7,3-1.7,5.6c0,1.9,0.2,3.4,0.7,4.5C429.9,209,431.6,210.1,434,210.1z M458.4,192.5h3.7c-0.5,1.3-1.5,4.2-3.1,8.7
	c-1.2,3.4-2.2,6.2-3,8.3c-1.9,5.1-3.3,8.2-4.1,9.3c-0.8,1.1-2.2,1.7-4.1,1.7c-0.5,0-0.8,0-1.1-0.1c-0.2,0-0.6-0.1-0.9-0.2v-3
	c0.6,0.2,1,0.3,1.3,0.3s0.5,0.1,0.7,0.1c0.6,0,1.1-0.1,1.4-0.3c0.3-0.2,0.5-0.4,0.7-0.7c0.1-0.1,0.3-0.6,0.7-1.5
	c0.4-0.9,0.7-1.6,0.8-2l-7.4-20.4h3.8l5.3,16.2L458.4,192.5L458.4,192.5z"/>
<circle class="st1" cx="170.3" cy="225.2" r="55.1"/>
<path class="st2" d="M140.7,250.2h12.9c2.3,0,3.4,0,4.5-0.3c1.1-0.3,2.2-0.9,3-1.7c0.8-0.7,1.3-1.7,2.5-3.7l16.9-29.6
	c1.1-2,1.7-2.9,1.9-4c0.3-1.1,0.3-2.3,0-3.4c-0.2-1-0.8-2-1.9-4h0L174,192c-1.5-2.7-2.3-4-3.3-4.5c-1.1-0.5-2.3-0.5-3.4,0
	c-1,0.5-1.8,1.9-3.3,4.6l-28.3,49.6l0,0v0c-1.5,2.7-2.3,4-2.2,5.1c0.1,1.2,0.7,2.3,1.7,2.9C136.1,250.2,137.6,250.2,140.7,250.2
	L140.7,250.2z M184.8,250.2h15c3.1,0,4.6,0,5.6-0.6c1-0.6,1.6-1.7,1.7-2.9c0.1-1.1-0.7-2.4-2.3-5.1l-7.5-12.8l0,0
	c-1.5-2.6-2.3-4-3.3-4.4c-1.1-0.5-2.3-0.5-3.3,0c-1,0.5-1.7,1.8-3.3,4.5l-7.5,12.8c-1.6,2.7-2.3,4-2.3,5.1c0.1,1.2,0.7,2.3,1.7,2.9
	C180.1,250.2,181.7,250.2,184.8,250.2L184.8,250.2z"/>
</svg>
